<?xml version="1.0" encoding="UTF-8" standalone="no"?>
<!-- Created with Inkscape (http://www.inkscape.org/) -->

<svg
   xmlns:dc="http://purl.org/dc/elements/1.1/"
   xmlns:cc="http://creativecommons.org/ns#"
   xmlns:rdf="http://www.w3.org/1999/02/22-rdf-syntax-ns#"
   xmlns:svg="http://www.w3.org/2000/svg"
   xmlns="http://www.w3.org/2000/svg"
   xmlns:sodipodi="http://sodipodi.sourceforge.net/DTD/sodipodi-0.dtd"
   xmlns:inkscape="http://www.inkscape.org/namespaces/inkscape"
   width="389.11829"
   height="163.26601"
   id="svg3563"
   version="1.1"
   inkscape:version="0.48.3.1 r9886"
   inkscape:export-filename="C:\Users\Paul\Desktop\ornament.png"
   inkscape:export-xdpi="55.509998"
   inkscape:export-ydpi="55.509998"
   sodipodi:docname="New document 3">
  <defs
     id="defs3565" />
  <sodipodi:namedview
     id="base"
     pagecolor="#ffffff"
     bordercolor="#666666"
     borderopacity="1.0"
     inkscape:pageopacity="0.0"
     inkscape:pageshadow="2"
     inkscape:zoom="1.4"
     inkscape:cx="114.31739"
     inkscape:cy="143.86776"
     inkscape:document-units="px"
     inkscape:current-layer="layer1"
     showgrid="false"
     fit-margin-top="0"
     fit-margin-left="0"
     fit-margin-right="0"
     fit-margin-bottom="0"
     inkscape:window-width="1378"
     inkscape:window-height="878"
     inkscape:window-x="-8"
     inkscape:window-y="-8"
     inkscape:window-maximized="1" />
  <metadata
     id="metadata3568">
    <rdf:RDF>
      <cc:Work
         rdf:about="">
        <dc:format>image/svg+xml</dc:format>
        <dc:type
           rdf:resource="http://purl.org/dc/dcmitype/StillImage" />
        <dc:title></dc:title>
      </cc:Work>
    </rdf:RDF>
  </metadata>
  <g
     inkscape:label="Layer 1"
     inkscape:groupmode="layer"
     id="layer1"
     transform="translate(-371.15514,-170.72916)">
    <path
       inkscape:connector-curvature="0"
       d="m 544.08843,231.95009 c 0,0 -16.03125,-15.2575 -47.8975,-4.055 -31.86874,11.20125 -38.04874,27.61875 -40.17374,35.72875 0,0 -7.725,-5.85375 -1.93125,-16.995 0,0 -4.25,-2.765 -1.93,-9.27 2.9275,-8.2225 21.82374,-16.22375 45.19249,-18.34875 23.37,-2.12375 44.23,7.14625 46.74,12.94"
       style="fill:#000000;fill-opacity:1;fill-rule:nonzero;stroke:none"
       id="path82" />
    <path
       inkscape:connector-curvature="0"
       d="m 456.78995,230.98883 c 0,0 -22.34375,13.605 -41.2025,18.79875 -17.76875,4.89375 -35.79625,5.40875 -44.29375,-0.7725 0,0 4.37875,-7.21 19.05625,-3.09 0,0 -10.91125,0.32375 -17.25375,-12.36 -4.635,-9.27125 -1.02875,-20.0875 11.46,-20.92875 0,0 -9.14125,2.64375 -8.3675,15.52 0.77,12.87625 20.6,18.5425 35.02125,15.70875 14.42,-2.8325 45.58,-12.87625 45.58,-12.87625"
       style="fill:#000000;fill-opacity:1;fill-rule:nonzero;stroke:none"
       id="path86" />
    <path
       inkscape:connector-curvature="0"
       d="m 564.17331,246.43746 c 0,0 -1.54375,-31.4175 -15.45,-47.8975 l -12.87625,4.11875 4.12,13.39 c 0,0 18.02625,5.1525 24.20625,30.38875"
       style="fill:#000000;fill-opacity:1;fill-rule:nonzero;stroke:none"
       id="path90" />
    <path
       inkscape:connector-curvature="0"
       d="m 587.34231,231.95009 c 0,0 16.02875,-15.2575 47.89875,-4.055 31.8675,11.20125 38.04625,27.61875 40.1725,35.72875 0,0 7.72375,-5.85375 1.93,-16.995 0,0 4.2475,-2.765 1.93,-9.27 -2.9275,-8.2225 -21.82375,-16.22375 -45.1925,-18.34875 -23.37,-2.12375 -44.22875,7.14625 -46.73875,12.94"
       style="fill:#000000;fill-opacity:1;fill-rule:nonzero;stroke:none"
       id="path94" />
    <path
       inkscape:connector-curvature="0"
       d="m 674.63956,230.98883 c 0,0 22.34375,13.605 41.20125,18.79875 17.76875,4.89375 35.7975,5.40875 44.29375,-0.7725 0,0 -4.37625,-7.21 -19.055,-3.09 0,0 10.91,0.32375 17.25125,-12.36 4.6375,-9.27125 1.03125,-20.0875 -11.4575,-20.92875 0,0 9.14125,2.64375 8.36875,15.52 -0.7725,12.87625 -20.60125,18.5425 -35.02125,15.70875 -14.4225,-2.8325 -45.58125,-12.87625 -45.58125,-12.87625"
       style="fill:#000000;fill-opacity:1;fill-rule:nonzero;stroke:none"
       id="path98" />
    <path
       inkscape:connector-curvature="0"
       d="m 565.72056,246.25671 c 1.5725,-34.38375 12.35125,-52.3525 12.35125,-52.3525 l -12.35125,-23.15625 0,-0.0188 -0.005,0.009 -0.006,-0.009 0,0.0188 -12.3525,23.15625 c 0,0 10.78125,17.96875 12.3525,52.3525 l 0,0.1825 c 0.002,-0.0312 0.004,-0.06 0.006,-0.0913 0,0.0312 0.002,0.06 0.005,0.0913 l 0,-0.1825 z"
       style="fill:#000000;fill-opacity:1;fill-rule:nonzero;stroke:none"
       id="path102" />
    <path
       inkscape:connector-curvature="0"
       d="m 598.15644,298.45646 c 0,0 -19.04625,-4.12 -32.43625,-29.855 l 0,-0.0175 c -0.002,0.002 -0.002,0.005 -0.005,0.007 -0.002,-0.002 -0.004,-0.005 -0.006,-0.007 l 0,0.0175 c -13.39,25.735 -32.4375,29.855 -32.4375,29.855 19.5725,8.75375 27.81375,-8.75625 27.81375,-8.75625 l -6.69625,25.75125 11.32,18.5275 0,0.0162 0.006,-0.009 0.005,0.009 0,-0.0162 11.32125,-18.5275 -6.695,-25.75125 c 0,0 8.24,17.51 27.81,8.75625"
       style="fill:#000000;fill-opacity:1;fill-rule:nonzero;stroke:none"
       id="path106" />
    <path
       inkscape:connector-curvature="0"
       d="m 567.25681,246.43746 c 0,0 1.54375,-31.4175 15.45125,-47.8975 l 12.87625,4.11875 -4.12125,13.39 c 0,0 -18.0275,5.1525 -24.20625,30.38875"
       style="fill:#000000;fill-opacity:1;fill-rule:nonzero;stroke:none"
       id="path110" />
    <path
       inkscape:connector-curvature="0"
       d="m 554.59319,251.22133 0.41,0 c -8.9875,-30.1475 -40.44,-32.69375 -58.8125,-23.32625 -13.64875,6.95625 -18.54125,20.605 -33.41374,41.1375 -8.76875,12.1075 -15.2575,11.58875 -15.2575,11.58875 15.19375,4.44625 24.29749,-10.42125 32.06124,-21.24625 12.23125,-17.055 22.995,-27.87375 43.64875,-26.84 20.14,1.00625 28.62375,13.3525 31.36375,18.68625"
       style="fill:#000000;fill-opacity:1;fill-rule:nonzero;stroke:none"
       id="path114" />
    <path
       inkscape:connector-curvature="0"
       d="m 626.62269,249.32321 c -3.0375,-3.20375 -7.0625,-5.6875 -11.5625,-6.56125 -4.47625,-0.8925 -9.265,-0.16625 -13.29125,2.22 -2.00125,1.19375 -3.85,2.84 -5.12125,5.01875 -0.3125,0.54625 -0.58375,1.1225 -0.80625,1.7225 l -0.17125,0.49875 c -0.0588,0.175 -0.0738,0.25625 -0.1125,0.3875 -0.0975,0.36625 -0.14625,0.60375 -0.21,0.915 -0.24,1.175 -0.2975,2.39 -0.205,3.6 0.1925,2.12375 0.89875,4.32125 2.38125,6.02875 1.38125,1.70125 3.4875,2.79 5.8475,2.79 4.16,0 7.5325,-3.3725 7.5325,-7.5325 0,-4.16 -3.3725,-7.53375 -7.5325,-7.53375 -0.44125,0 -0.87125,0.0475 -1.29125,0.11875 0.615,-0.7125 1.35125,-1.36375 2.19875,-1.89125 2.82125,-1.77125 6.47875,-2.2425 9.8075,-1.53875 3.36,0.69875 6.44,2.61625 8.85125,5.22125 2.4,2.57875 4.01125,5.82125 4.58125,9.265 0.58375,3.44 0.14,7.0475 -1.2175,10.2725 -1.34875,3.2325 -3.60625,6.0675 -6.43625,8.16875 -2.8275,2.115 -6.2075,3.5025 -9.7675,4.1925 -3.57875,0.68875 -7.3025,0.77 -10.795,0.08 -3.50625,-0.68 -6.815,-2.145 -9.69125,-4.265 -5.47125,-4.02 -9.38875,-10.25125 -11.2,-16.91875 l -6.43875,0 c 0.03,0.12875 0.0538,0.2575 0.0863,0.385 1.0425,4.22375 2.76875,8.23375 5.1125,11.88625 2.3425,3.64625 5.33625,6.935 8.9325,9.5 3.5825,2.57125 7.775,4.36125 12.11875,5.14375 4.35875,0.79 8.76125,0.62375 13.0025,-0.2475 4.255,-0.8825 8.43625,-2.63375 11.975,-5.355 3.5425,-2.7025 6.3925,-6.3675 8.065,-10.53125 1.68625,-4.15375 2.1975,-8.78875 1.38625,-13.21375 -0.79,-4.43 -2.94375,-8.60375 -6.02875,-11.82625"
       style="fill:#000000;fill-opacity:1;fill-rule:nonzero;stroke:none"
       id="path118" />
    <path
       inkscape:connector-curvature="0"
       d="m 756.05868,220.63296 c -0.83,-2.0075 -2.07875,-3.84375 -3.69125,-5.23375 -1.5925,-1.4075 -3.5225,-2.34625 -5.49375,-2.7625 1.76625,0.97875 3.26625,2.27375 4.3975,3.7875 1.125,1.52125 1.8975,3.24 2.3,5.02375 0.40125,1.7825 0.5025,3.61625 0.25875,5.39875 -0.22125,1.78 -0.7275,3.51 -1.51875,5.08125 -0.78375,1.57375 -1.8175,2.99375 -3.0525,4.1975 -0.61625,0.60125 -1.29,1.14125 -1.99875,1.6275 -0.6875,0.47375 -1.465,0.90375 -2.29625,1.3125 -3.285,1.6225 -6.8975,2.505 -10.61125,2.79875 -7.46625,0.585 -15.15625,-0.995 -22.65125,-3.01875 -7.5175,-2.07625 -14.91625,-4.825 -22.2225,-7.82 -14.69125,-6.13 -29.9,-12.0925 -46.02125,-15.145 -8.05,-1.505 -16.37375,-2.275 -24.72625,-1.54 -4.16125,0.35875 -8.33875,1.1 -12.3725,2.23875 -4.0425,1.13125 -8.00875,2.655 -11.76625,4.63875 -7.50625,3.9375 -14.2375,9.8075 -18.61125,17.34125 -2.17375,3.75625 -3.76,7.8975 -4.4975,12.25875 -0.0225,0.13375 -0.0375,0.27 -0.0588,0.40375 l 6.47875,0 c 0.67375,-3.27125 1.94875,-6.455 3.68375,-9.38 3.70875,-6.2875 9.4525,-11.35375 16.0675,-14.78875 3.30875,-1.7325 6.83875,-3.08125 10.48375,-4.08625 3.6525,-1.01875 7.3725,-1.665 11.1625,-1.9825 7.57375,-0.6275 15.3025,0.0275 22.9275,1.4575 7.635,1.425 15.1775,3.6175 22.63625,6.12 3.73,1.25875 7.4375,2.61375 11.12875,4.03125 3.7075,1.4075 7.32,2.92625 11.09625,4.4125 7.5225,2.9075 15.17125,5.58375 23.09,7.60375 3.9575,1.01125 7.99625,1.80875 12.1175,2.285 4.11875,0.47 8.335,0.62125 12.5675,0.135 4.22125,-0.48125 8.46875,-1.665 12.28125,-3.7225 0.9425,-0.505 1.9,-1.0725 2.8325,-1.76375 0.90875,-0.6825 1.755,-1.4475 2.525,-2.2775 1.535,-1.67125 2.76,-3.62 3.55375,-5.71375 0.79125,-2.0925 1.2325,-4.3 1.235,-6.5075 -0.0187,-2.20125 -0.39375,-4.3975 -1.23375,-6.41125"
       style="fill:#000000;fill-opacity:1;fill-rule:nonzero;stroke:none"
       id="path122" />
    <path
       inkscape:connector-curvature="0"
       d="m 583.54706,257.40184 c 0,2.56 -2.115,4.63625 -4.72,4.63625 l -26.225,0 c -2.60625,0 -4.72,-2.07625 -4.72,-4.63625 0,-2.55875 2.11375,-4.635 4.72,-4.635 l 26.225,0 c 2.605,0 4.72,2.07625 4.72,4.635"
       style="fill:#000000;fill-opacity:1;fill-rule:nonzero;stroke:none"
       id="path126" />
    <path
       inkscape:connector-curvature="0"
       d="m 512.12868,220.98458 c 3.78875,0.31625 7.5075,0.96375 11.1625,1.98125 3.645,1.00625 7.175,2.355 10.485,4.0875 6.61375,3.435 12.3575,8.5 16.065,14.78875 1.73625,2.925 3.01125,6.10875 3.685,9.37875 l 6.4775,0 c -0.0212,-0.1325 -0.035,-0.26875 -0.0575,-0.4025 -0.7375,-4.36125 -2.32375,-8.5025 -4.49875,-12.25875 -4.37375,-7.53375 -11.105,-13.405 -18.60875,-17.34125 -3.76,-1.98375 -7.725,-3.50875 -11.76875,-4.63875 -4.03375,-1.13875 -8.20875,-1.88 -12.37375,-2.23875 -8.35,-0.735 -16.67375,0.0337 -24.725,1.54 -16.12125,3.05125 -31.32999,9.015 -46.02124,15.145 -7.305,2.995 -14.70375,5.74375 -22.22125,7.82 -7.495,2.02375 -15.185,3.6025 -22.6525,3.01875 -3.71375,-0.29375 -7.32625,-1.17625 -10.61,-2.79875 -0.8325,-0.40875 -1.6075,-0.83875 -2.29625,-1.3125 -0.71,-0.4875 -1.3825,-1.02625 -2,-1.6275 -1.235,-1.20375 -2.26625,-2.62375 -3.0525,-4.1975 -0.79,-1.57125 -1.2975,-3.30125 -1.51875,-5.0825 -0.2425,-1.78125 -0.14,-3.615 0.25875,-5.3975 0.40375,-1.785 1.175,-3.5025 2.3,-5.02375 1.1325,-1.51375 2.63125,-2.81 4.39875,-3.78875 -1.97,0.41625 -3.90375,1.35625 -5.495,2.76375 -1.6125,1.39 -2.86,3.225 -3.69125,5.23375 -0.84,2.01375 -1.21375,4.21 -1.2325,6.41125 0,2.20625 0.44375,4.415 1.235,6.5075 0.7925,2.09375 2.0175,4.0425 3.5525,5.71375 0.77125,0.83 1.61625,1.595 2.52625,2.27625 0.9325,0.6925 1.89125,1.26 2.83125,1.76375 3.8125,2.0575 8.06,3.2425 12.2825,3.7225 4.23375,0.4875 8.44875,0.33625 12.565,-0.13375 4.1225,-0.47625 8.16,-1.27375 12.11875,-2.285 7.91875,-2.02 15.5675,-4.69625 23.09,-7.605 3.77625,-1.48625 7.39125,-3.00375 11.0975,-4.41125 3.69125,-1.4175 7.3975,-2.7725 11.12625,-4.03125 7.46249,-2.5025 15.00374,-4.695 22.63749,-6.12 7.625,-1.43 15.35375,-2.085 22.92875,-1.4575"
       style="fill:#000000;fill-opacity:1;fill-rule:nonzero;stroke:none"
       id="path130" />
    <path
       inkscape:connector-curvature="0"
       d="m 553.01918,263.58221 c -1.8125,6.6675 -5.73,12.8975 -11.20125,16.91875 -2.875,2.11875 -6.185,3.58375 -9.69125,4.26375 -3.4925,0.69125 -7.2175,0.61 -10.795,-0.0787 -3.55875,-0.69 -6.94,-2.0775 -9.7675,-4.19375 -2.82875,-2.1 -5.085,-4.935 -6.43625,-8.1675 -1.35625,-3.225 -1.8,-6.8325 -1.21625,-10.2725 0.57,-3.44375 2.18125,-6.68625 4.58,-9.26625 2.41125,-2.605 5.49125,-4.52125 8.85125,-5.22 3.32875,-0.70375 6.9875,-0.2325 9.8075,1.5375 0.845,0.52875 1.5825,1.18 2.2,1.8925 -0.42125,-0.0713 -0.85,-0.11875 -1.2925,-0.11875 -4.16,0 -7.5325,3.37375 -7.5325,7.53375 0,4.15875 3.3725,7.5325 7.5325,7.5325 2.36125,0 4.46625,-1.08875 5.8475,-2.79 1.4825,-1.7075 2.18875,-3.905 2.3825,-6.03 0.0913,-1.20875 0.035,-2.42375 -0.20625,-3.59875 -0.0637,-0.31125 -0.1125,-0.54875 -0.21,-0.915 -0.04,-0.13125 -0.0525,-0.2125 -0.1125,-0.3875 l -0.17125,-0.49875 c -0.22375,-0.6 -0.495,-1.1775 -0.805,-1.7225 -1.2725,-2.17875 -3.12,-3.825 -5.12375,-5.01875 -4.025,-2.3875 -8.8125,-3.1125 -13.29,-2.22 -4.5,0.8725 -8.5275,3.3575 -11.56125,6.56125 -3.08625,3.2225 -5.24,7.39625 -6.03,11.82625 -0.81125,4.425 -0.3,9.06 1.385,13.21375 1.67375,4.16375 4.52375,7.82875 8.06625,10.53125 3.54,2.72125 7.71875,4.4725 11.97375,5.355 4.2425,0.87125 8.64375,1.0375 13.00375,0.2475 4.345,-0.7825 8.5375,-2.5725 12.11875,-5.14375 3.5975,-2.565 6.59,-5.855 8.9325,-9.50125 2.3425,-3.65125 4.07125,-7.66125 5.1125,-11.885 0.0312,-0.1275 0.0562,-0.25625 0.0862,-0.385 l -6.4375,0 z"
       style="fill:#000000;fill-opacity:1;fill-rule:nonzero;stroke:none"
       id="path134" />
  </g>
</svg>
